<svg width="26" height="26" viewBox="0 0 26 26" xmlns="http://www.w3.org/2000/svg">
    <defs>
        <clipPath id="7523p89vsa">
            <path d="M2314 0v1130H0V0h2314z"/>
        </clipPath>
        <clipPath id="lzrhri7esb">
            <path d="M15 0a1 1 0 0 1 1 1v18.143a1 1 0 0 1-1.55.835l-6.421-4.232-6.481 4.241A1 1 0 0 1 0 19.15V1a1 1 0 0 1 1-1h14z"/>
        </clipPath>
    </defs>
    <g clip-path="url(#7523p89vsa)" transform="translate(-372 -624)">
        <g clip-path="url(#lzrhri7esb)" transform="translate(377 627)">
            <path fill="#FFF" d="M0 0h16v20.15H0V0z"/>
            <path d="M1 0h14a1 1 0 0 1 1 1v18.143a1 1 0 0 1-1.55.835l-6.421-4.232-6.481 4.241A1 1 0 0 1 0 19.15V1a1 1 0 0 1 1-1z" stroke="#CDCDCD" stroke-width="2.4" fill="none" stroke-miterlimit="5"/>
        </g>
    </g>
</svg>
