<svg width="34" height="34" viewBox="0 0 34 34" xmlns="http://www.w3.org/2000/svg">
    <defs>
        <clipPath id="ixiaz008ea">
            <path d="M2314 0v1130H0V0h2314z"/>
        </clipPath>
        <clipPath id="3p7jff1rpb">
            <path d="M17 0a1 1 0 0 1 1 1v20.17a1 1 0 0 1-1.54.842l-7.428-4.767-7.495 4.776A1 1 0 0 1 0 21.177V1a1 1 0 0 1 1-1h16z"/>
        </clipPath>
    </defs>
    <g clip-path="url(#ixiaz008ea)" transform="translate(-209 -620)">
        <g clip-path="url(#3p7jff1rpb)" transform="translate(217 626)">
            <path fill="#FFF" d="M0 0h18v22.177H0V0z"/>
            <path d="M1 0h16a1 1 0 0 1 1 1v20.17a1 1 0 0 1-1.54.842l-7.428-4.767-7.495 4.776A1 1 0 0 1 0 21.177V1a1 1 0 0 1 1-1z" stroke="#CDCDCD" stroke-width="3.2" fill="none" stroke-miterlimit="5"/>
        </g>
    </g>
</svg>
