<?xml version="1.0" encoding="UTF-8"?>
<svg width="120px" height="120px" viewBox="0 0 120 120" version="1.1" xmlns="http://www.w3.org/2000/svg" xmlns:xlink="http://www.w3.org/1999/xlink">
    <!-- Generator: Sketch 61 (89581) - https://sketch.com -->
    <g id="Img-/-Logo-/-broadcast" stroke="none" stroke-width="1" fill="none" fill-rule="evenodd">
        <path d="M73.4537706,40.5129678 L73.4537706,44.7065162 L80.8907171,44.7065162 L80.8907171,50.8053397 C80.8765121,60.6664342 73.6254152,68.8368618 64.0656985,70.7415483 L64.0656985,70.7415483 L64.0656985,99.0000883 L56.0783055,99.0000883 L56.0783055,70.8251543 C46.2833172,69.1012217 38.7851113,60.8295248 38.7741616,50.8053397 L38.7741616,50.8053397 L38.7741616,44.7065162 L45.8494706,44.7065162 L45.8494706,40.5129678 L73.4537706,40.5129678 Z M45.8494706,48.5921353 L42.6829236,48.5921353 L42.6829236,50.8053397 C42.6983124,58.5957133 48.4028321,65.2132474 56.0783055,66.8703541 L56.0783055,66.8703541 L56.0783055,62.7745423 C50.188232,61.2702227 45.8494706,56.1399336 45.8494706,50.0402269 L45.8494706,50.0402269 L45.8494706,48.5921353 Z M76.9795876,48.5921353 L73.4537706,48.5921353 L73.4537706,50.0402269 C73.4537706,55.8455463 69.5219254,60.7712361 64.0656985,62.5302007 L64.0656985,62.5302007 L64.0656985,66.7634914 C71.4979099,64.9397615 76.963015,58.4332114 76.9795876,50.8053397 L76.9795876,50.8053397 L76.9795876,48.5921353 Z M59.651591,20.9999411 C67.2740913,20.9999411 73.4553687,26.9035859 73.4553687,34.1846692 L73.4553687,34.1846692 L73.4553687,38.9472684 L45.8510687,38.9472684 L45.8510687,34.1846692 C45.8510687,26.9035859 52.0320502,20.9999411 59.651591,20.9999411 Z" id="Combined-Shape" fill="#c4c4c4" fill-rule="nonzero"></path>
        <rect id="Rectangle" fill="#c4c4c4" x="43" y="93" width="34" height="6"></rect>
    </g>
</svg>