<svg width="34" height="34" viewBox="0 0 34 34" xmlns="http://www.w3.org/2000/svg">
    <g fill="none" fill-rule="evenodd">
        <path d="M0 0h34v34H0z"/>
        <path d="M18.879 6.84a2.034 2.034 0 0 1 2.115 2.339v-.001l-.587 3.818h6.033c1.036 0 1.973.42 2.652 1.1a3.75 3.75 0 0 1 .838 4.024v-.001l-2.797 7.115a3.097 3.097 0 0 1-2.885 1.966h-9.619a3.09 3.09 0 0 1-2.192-.908 3.09 3.09 0 0 1-.908-2.192v-9.47a1.8 1.8 0 0 1 .484-1.227l4.365-4.683 1.095-1.212a2.028 2.028 0 0 1 1.406-.669zM6.87 14.304c.497 0 .947.201 1.273.527.326.326.527.776.527 1.273V25.4c0 .497-.201.947-.527 1.273a1.794 1.794 0 0 1-1.273.527H5.6c-.497 0-.947-.201-1.273-.527A1.794 1.794 0 0 1 3.8 25.4v-9.295c0-.497.201-.947.527-1.273a1.794 1.794 0 0 1 1.273-.527z" stroke="#CDCDCD" stroke-width="1.6" fill="#FFF"/>
    </g>
</svg>
