<svg width="24" height="24" viewBox="0 0 24 24" xmlns="http://www.w3.org/2000/svg">
    <g fill="none" fill-rule="evenodd" opacity=".8">
        <path d="M0 0h24v24H0z"/>
        <path d="M21 18.795a.204.204 0 0 1-.202.205H3.202A.204.204 0 0 1 3 18.795V6.055c0-.113.091-.206.202-.206h17.596c.111 0 .202.093.202.206v12.74zM6.742 4v3.699M17.258 4v3.699" stroke="#FFF" stroke-width="1.6"/>
        <path d="M18.27 10.678a.816.816 0 0 1-.81.822.815.815 0 0 1-.808-.822c0-.454.362-.822.809-.822.446 0 .809.368.809.822" fill="#FFF"/>
        <path d="M18.27 10.678a.816.816 0 0 1-.81.822.815.815 0 0 1-.808-.822c0-.454.362-.822.809-.822.446 0 .809.368.809.822z" stroke="#FFF" stroke-width=".5"/>
        <path d="M14.63 10.678a.816.816 0 0 1-.81.822.815.815 0 0 1-.809-.822c0-.454.362-.822.81-.822.446 0 .808.368.808.822" fill="#FFF"/>
        <path d="M14.63 10.678a.816.816 0 0 1-.81.822.815.815 0 0 1-.809-.822c0-.454.362-.822.81-.822.446 0 .808.368.808.822z" stroke="#FFF" stroke-width=".5"/>
        <path d="M10.989 10.678a.816.816 0 0 1-.81.822.815.815 0 0 1-.808-.822c0-.454.362-.822.809-.822.447 0 .809.368.809.822" fill="#FFF"/>
        <path d="M10.989 10.678a.816.816 0 0 1-.81.822.815.815 0 0 1-.808-.822c0-.454.362-.822.809-.822.447 0 .809.368.809.822z" stroke="#FFF" stroke-width=".5"/>
        <path d="M14.63 13.966a.816.816 0 0 1-.81.822.815.815 0 0 1-.809-.822c0-.454.362-.822.81-.822.446 0 .808.368.808.822" fill="#FFF"/>
        <path d="M14.63 13.966a.816.816 0 0 1-.81.822.815.815 0 0 1-.809-.822c0-.454.362-.822.81-.822.446 0 .808.368.808.822z" stroke="#FFF" stroke-width=".5"/>
        <path d="M10.989 13.966a.816.816 0 0 1-.81.822.815.815 0 0 1-.808-.822c0-.454.362-.822.809-.822.447 0 .809.368.809.822" fill="#FFF"/>
        <path d="M10.989 13.966a.816.816 0 0 1-.81.822.815.815 0 0 1-.808-.822c0-.454.362-.822.809-.822.447 0 .809.368.809.822z" stroke="#FFF" stroke-width=".5"/>
        <path d="M7.348 13.966a.816.816 0 0 1-.809.822.815.815 0 0 1-.809-.822c0-.454.362-.822.81-.822.446 0 .808.368.808.822" fill="#FFF"/>
        <path d="M7.348 13.966a.816.816 0 0 1-.809.822.815.815 0 0 1-.809-.822c0-.454.362-.822.81-.822.446 0 .808.368.808.822z" stroke="#FFF" stroke-width=".5"/>
    </g>
</svg>
