<svg width="26" height="26" viewBox="0 0 26 26" xmlns="http://www.w3.org/2000/svg">
    <g fill="none" fill-rule="evenodd">
        <path d="M0 0h26v26H0z"/>
        <path d="M3.2 9.823h1.146a2.2 2.2 0 0 1 2.2 2.2V20.8a2.2 2.2 0 0 1-2.2 2.2H3.2A2.2 2.2 0 0 1 1 20.8v-8.777a2.2 2.2 0 0 1 2.2-2.2zm13.054-6.064c.648.552.968 1.398.846 2.24l-.38 2.634h4.562a3.85 3.85 0 0 1 3.61 5.189l-2.604 7.025A3.3 3.3 0 0 1 19.194 23h-8.27a3.3 3.3 0 0 1-3.3-3.3v-8.956a2.2 2.2 0 0 1 .549-1.452l3.767-4.286.823-.966a2.477 2.477 0 0 1 3.491-.281z" fill="#2088FD"/>
    </g>
</svg>
