<svg width="24" height="24" viewBox="0 0 24 24" xmlns="http://www.w3.org/2000/svg">
    <g fill="none" fill-rule="evenodd">
        <path d="m12.123 2.088 10.848 18.7c.068.117.012.212-.123.212H1.152c-.135 0-.19-.095-.123-.212l10.848-18.7c.068-.117.178-.117.246 0zm-.029 14.133c-.68 0-1.232.55-1.232 1.227s.552 1.225 1.232 1.225c.681 0 1.233-.548 1.233-1.225a1.23 1.23 0 0 0-1.233-1.227zm.986-7.846h-1.972v6.62h1.972v-6.62z" fill="#FCBF2D"/>
        <path d="M22.971 20.788c.068.117.012.212-.123.212H1.152c-.135 0-.19-.095-.123-.212l10.848-18.7c.068-.117.178-.117.246 0l10.848 18.7z" stroke="#FCBF2D" stroke-width="1.944"/>
    </g>
</svg>
