<svg width="34" height="34" viewBox="0 0 34 34" xmlns="http://www.w3.org/2000/svg">
    <g fill="none" fill-rule="evenodd">
        <path d="M0 0h34v34H0z"/>
        <path d="M5.6 13.505h1.27a2.6 2.6 0 0 1 2.6 2.6V25.4a2.6 2.6 0 0 1-2.6 2.6H5.6A2.6 2.6 0 0 1 3 25.4v-9.295a2.6 2.6 0 0 1 2.6-2.6zm15.281-6.739a2.834 2.834 0 0 1 .903 2.533l-.445 2.897h5.101a4.55 4.55 0 0 1 4.235 6.216l-2.798 7.115A3.9 3.9 0 0 1 24.247 28H14.63a3.9 3.9 0 0 1-3.9-3.9v-9.47a2.6 2.6 0 0 1 .699-1.773l4.356-4.673 1.095-1.212a2.834 2.834 0 0 1 4.002-.206z" fill="#2088FD"/>
    </g>
</svg>
