<svg width="26" height="26" viewBox="0 0 26 26" xmlns="http://www.w3.org/2000/svg">
    <g fill="none" fill-rule="evenodd">
        <path d="M0 0h26v26H0z"/>
        <path d="M14.498 3.775a1.877 1.877 0 0 1 2.008 2.139l-.48 3.319h5.256c.898 0 1.71.364 2.299.952a3.24 3.24 0 0 1 .749 3.428l-2.605 7.026a2.697 2.697 0 0 1-2.531 1.761h-8.27c-.745 0-1.42-.302-1.908-.79a2.692 2.692 0 0 1-.791-1.91v-8.956a1.6 1.6 0 0 1 .398-1.056l3.774-4.293.823-.966c.335-.395.8-.616 1.278-.654zM4.346 10.423a1.595 1.595 0 0 1 1.6 1.6V20.8c0 .442-.18.842-.469 1.131-.29.29-.69.469-1.131.469H3.2c-.442 0-.842-.18-1.131-.469-.29-.29-.469-.69-.469-1.131v-8.777c0-.442.18-.842.469-1.132.29-.29.69-.468 1.131-.468z" fill="#FFF" stroke="#CDCDCD" stroke-width="1.2"/>
    </g>
</svg>
