<?xml version="1.0" encoding="UTF-8"?>
<svg width="120px" height="120px" viewBox="0 0 120 120" version="1.1" xmlns="http://www.w3.org/2000/svg" xmlns:xlink="http://www.w3.org/1999/xlink">
    <!-- Generator: Sketch 61 (89581) - https://sketch.com -->
    <g id="Img-/-Logo-/-Instagram" stroke="none" stroke-width="1" fill="none" fill-rule="evenodd">
        <g id="iconmonstr-instagram-11" transform="translate(16.000000, 16.000000)" fill="#c4c4c4" fill-rule="nonzero">
            <path d="M44,7.931 C55.748,7.931 57.1413333,7.975 61.7833333,8.18766667 C73.7073333,8.73033333 79.277,14.388 79.8196667,26.224 C80.0323333,30.8623333 80.0726667,32.2556667 80.0726667,44.0036667 C80.0726667,55.7553333 80.0286667,57.145 79.8196667,61.7833333 C79.2733333,73.6083333 73.7183333,79.277 61.7833333,79.8196667 C57.1413333,80.0323333 55.7553333,80.0763333 44,80.0763333 C32.252,80.0763333 30.8586667,80.0323333 26.2203333,79.8196667 C14.267,79.2733333 8.72666667,73.59 8.184,61.7796667 C7.97133333,57.1413333 7.92733333,55.7516667 7.92733333,44 C7.92733333,32.252 7.975,30.8623333 8.184,26.2203333 C8.73033333,14.388 14.2853333,8.72666667 26.2203333,8.184 C30.8623333,7.975 32.252,7.931 44,7.931 L44,7.931 Z M44,0 C32.0503333,0 30.5543333,0.0513333333 25.861,0.264 C9.88166667,0.997333333 1.001,9.86333333 0.267666667,25.8573333 C0.0513333333,30.5543333 0,32.0503333 0,44 C0,55.9496667 0.0513333333,57.4493333 0.264,62.1426667 C0.997333333,78.122 9.86333333,87.0026667 25.8573333,87.736 C30.5543333,87.9486667 32.0503333,88 44,88 C55.9496667,88 57.4493333,87.9486667 62.1426667,87.736 C78.1073333,87.0026667 87.01,78.1366667 87.7323333,62.1426667 C87.9486667,57.4493333 88,55.9496667 88,44 C88,32.0503333 87.9486667,30.5543333 87.736,25.861 C87.0173333,9.89633333 78.1403333,1.001 62.1463333,0.267666667 C57.4493333,0.0513333333 55.9496667,0 44,0 Z M44,21.406 C31.5223333,21.406 21.406,31.5223333 21.406,44 C21.406,56.4776667 31.5223333,66.5976667 44,66.5976667 C56.4776667,66.5976667 66.594,56.4813333 66.594,44 C66.594,31.5223333 56.4776667,21.406 44,21.406 Z M44,58.6666667 C35.9003333,58.6666667 29.3333333,52.1033333 29.3333333,44 C29.3333333,35.9003333 35.9003333,29.3333333 44,29.3333333 C52.0996667,29.3333333 58.6666667,35.9003333 58.6666667,44 C58.6666667,52.1033333 52.0996667,58.6666667 44,58.6666667 Z M67.4886667,15.235 C64.57,15.235 62.205,17.6 62.205,20.515 C62.205,23.43 64.57,25.795 67.4886667,25.795 C70.4036667,25.795 72.765,23.43 72.765,20.515 C72.765,17.6 70.4036667,15.235 67.4886667,15.235 Z" id="Shape"></path>
        </g>
    </g>
</svg>