<?xml version="1.0" encoding="UTF-8"?>
<svg width="120px" height="120px" viewBox="0 0 120 120" version="1.1" xmlns="http://www.w3.org/2000/svg" xmlns:xlink="http://www.w3.org/1999/xlink">
    <!-- Generator: Sketch 61 (89581) - https://sketch.com -->
    <g id="Img-/-Logo-/-Linkedin" stroke="none" stroke-width="1" fill="none" fill-rule="evenodd">
        <g id="linkedin_icon-icons.com_65929" transform="translate(26.000000, 27.000000)" fill="#c4c4c4" fill-rule="nonzero">
            <path d="M68,39.8482516 L68,65 L53.4222037,65 L53.4222037,41.5338799 C53.4222037,35.6417935 51.3174522,31.6180358 46.0392658,31.6180358 C42.0113193,31.6180358 39.618469,34.3270035 38.5617446,36.9500586 C38.1779753,37.8874854 38.0790433,39.1892254 38.0790433,40.5040154 L38.0790433,64.9989125 L23.5001599,64.9989125 C23.5001599,64.9989125 23.6958496,25.2550611 23.5001599,21.1410407 L38.0801305,21.1410407 L38.0801305,27.3561151 C38.050777,27.4050527 38.0094647,27.4529028 37.9833728,27.4996654 L38.0801305,27.4996654 L38.0801305,27.3561151 C40.0174586,24.3741844 43.4724691,20.1111762 51.2185202,20.1111762 C60.8094903,20.1111762 68,26.3795382 68,39.8482516 L68,39.8482516 Z M8.24940845,0 C3.26258234,0 0,3.2744688 0,7.57662707 C0,11.7874352 3.16799898,15.1565166 8.0580674,15.1565166 L8.15265076,15.1565166 C13.2373217,15.1565166 16.3987977,11.7874352 16.3987977,7.57662707 C16.30204,3.2744688 13.2373217,0 8.24940845,0 L8.24940845,0 Z M0.866470551,65 L15.4399181,65 L15.4399181,21.1410407 L0.866470551,21.1410407 L0.866470551,65 Z" id="Shape"></path>
        </g>
    </g>
</svg>