<?xml version="1.0" encoding="UTF-8"?>
<svg width="120px" height="120px" viewBox="0 0 120 120" version="1.1" xmlns="http://www.w3.org/2000/svg" xmlns:xlink="http://www.w3.org/1999/xlink">
    <!-- Generator: Sketch 61 (89581) - https://sketch.com -->
    <g id="Img-/-Logo-/-Twitter" stroke="none" stroke-width="1" fill="none" fill-rule="evenodd">
        <path d="M45.1560826,92 C35.8868491,92 27.263376,89.2809561 20,84.6254504 C28.7091935,85.6536603 37.4012429,83.2316548 44.2988785,77.833553 C37.1212229,77.7021707 31.0579327,72.9552685 28.96064,66.4375604 C31.537967,66.9288162 34.0752911,66.7860093 36.3783127,66.1576588 C28.4863205,64.5696458 23.0345025,57.4635732 23.211658,49.8605326 C25.4289592,51.0886721 27.9548539,51.8255558 30.6464747,51.91124 C23.3373812,47.0272432 21.268662,37.3792073 25.5661119,30.0046577 C33.6581184,39.9325951 45.7561254,46.4617277 59.3970998,47.147201 C57.002643,36.8879515 64.7917708,27 75.392528,27 C80.1071505,27 84.3760269,28.9935847 87.3705265,32.1810352 C91.1079363,31.4498638 94.6281877,30.0789173 97.7941282,28.1995782 C96.565469,32.032516 93.9652832,35.2428157 90.5764697,37.2763863 C93.8967069,36.8765269 97.0626473,35.9968363 100,34.6887248 C97.8055575,37.990421 95.0282163,40.8808331 91.8108436,43.1943053 C92.8566326,66.2719044 75.6382599,92 45.1560826,92 Z" id="Path" fill="#c4c4c4" fill-rule="nonzero"></path>
    </g>
</svg>