<?xml version="1.0" encoding="UTF-8"?>
<svg width="120px" height="120px" viewBox="0 0 120 120" version="1.1" xmlns="http://www.w3.org/2000/svg" xmlns:xlink="http://www.w3.org/1999/xlink">
    <!-- Generator: Sketch 61 (89581) - https://sketch.com -->
    <g id="Img-/-Logo-/-Youtube" stroke="none" stroke-width="1" fill="none" fill-rule="evenodd">
        <g id="cib-youtube" transform="translate(16.000000, 29.000000)" fill="#c4c4c4" fill-rule="nonzero">
            <path d="M86.075,9.6875 C84.975,6.08928571 82.225,3.04464286 78.375,1.9375 C71.5,0 44,0 44,0 C44,0 16.5,0 9.625,1.9375 C5.775,3.04464286 3.025,5.8125 1.925,9.6875 C0.55,16.6071429 0,23.8035714 0,31 C0,38.1964286 0.55,45.3928571 1.925,52.3125 C3.025,55.9107143 5.775,58.9553571 9.625,60.0625 C16.5,62 44,62 44,62 C44,62 71.5,62 78.375,60.0625 C82.225,58.9553571 84.975,56.1875 86.075,52.3125 C87.45,45.3928571 88,38.1964286 88,31 C88,23.8035714 87.45,16.6071429 86.075,9.6875 Z M35.2,44.2857143 L35.2,17.7142857 L58.025,31 L35.2,44.2857143 Z" id="Shape"></path>
        </g>
    </g>
</svg>